<svg width="45" height="45" viewBox="0 0 45 45" fill="none" xmlns="http://www.w3.org/2000/svg">
<path d="M22.5 0C18.0499 0 13.6998 1.3196 9.99968 3.79193C6.29957 6.26426 3.41569 9.77828 1.71272 13.8896C0.00974911 18.001 -0.435826 22.525 0.432341 26.8895C1.30051 31.2541 3.44343 35.2632 6.59011 38.4099C9.73679 41.5566 13.7459 43.6995 18.1105 44.5677C22.475 45.4358 26.999 44.9902 31.1104 43.2873C35.2217 41.5843 38.7357 38.7004 41.2081 35.0003C43.6804 31.3002 45 26.9501 45 22.5C44.9933 16.5347 42.6206 10.8157 38.4025 6.59755C34.1843 2.37945 28.4653 0.0067492 22.5 0ZM30.4684 23.086L15.4684 35.086C15.313 35.2102 15.1146 35.2676 14.9169 35.2455C14.7192 35.2235 14.5383 35.1238 14.4141 34.9684C14.2898 34.813 14.2324 34.6146 14.2545 34.4169C14.2765 34.2192 14.3762 34.0383 14.5316 33.9141L28.7996 22.5L14.5316 11.086C14.3762 10.9618 14.2765 10.7809 14.2545 10.5832C14.2324 10.3854 14.2898 10.1871 14.4141 10.0317C14.5383 9.87626 14.7192 9.77657 14.9169 9.75452C15.1146 9.73248 15.313 9.78988 15.4684 9.9141L30.4684 21.9141C30.5563 21.9844 30.6273 22.0735 30.6761 22.1749C30.7249 22.2764 30.7502 22.3875 30.7502 22.5C30.7502 22.6126 30.7249 22.7237 30.6761 22.8251C30.6273 22.9266 30.5563 23.0157 30.4684 23.086Z" fill="#777777"/>
</svg>
