<svg width="18" height="15" viewBox="0 0 18 15" fill="none" xmlns="http://www.w3.org/2000/svg">
<path fill-rule="evenodd" clip-rule="evenodd" d="M14.8788 8.4288L9.97757 13.4116C9.61954 13.7756 9.61902 14.3645 9.97597 14.7274C10.3354 15.0928 10.9124 15.0895 11.2702 14.7257L17.7318 8.15664C17.9113 7.9742 18.0003 7.73664 18 7.4992C17.9991 7.26117 17.91 7.02367 17.7318 6.84249L11.2702 0.273394C10.9122 -0.0905978 10.3329 -0.0911217 9.97597 0.271769C9.61653 0.63719 9.61974 1.22375 9.97757 1.58754L14.8788 6.57032H0.915342C0.412162 6.57032 0 6.98636 0 7.49956C0 8.01635 0.409812 8.4288 0.915342 8.4288H14.8788Z" fill="white"/>
</svg>
