<svg width="90" height="90" viewBox="0 0 90 90" fill="none" xmlns="http://www.w3.org/2000/svg">
<g filter="url(#filter0_d_1_292)">
<rect x="6" y="6" width="69.8695" height="70" rx="5" fill="white"/>
</g>
<path d="M62.3663 42.9307L49.1114 41.1289V58.2389C49.0814 60.3236 48.2259 62.3114 46.7323 63.7662C45.2387 65.221 43.2291 66.024 41.1443 65.9992C36.6129 66.0569 32.3424 63.1335 32.3424 58.2389V41.1289L19.0875 42.94C18.7091 42.982 18.3269 42.9082 17.9913 42.7282C17.6558 42.5482 17.3829 42.2706 17.2086 41.9321C17.0343 41.5936 16.9669 41.2102 17.0152 40.8326C17.0636 40.4549 17.2256 40.1009 17.4796 39.8172L39.3705 16.5606C39.7303 16.2016 40.2178 16 40.726 16C41.2342 16 41.7217 16.2016 42.0815 16.5606L63.9743 39.8079C64.2283 40.0915 64.3902 40.4456 64.4386 40.8232C64.487 41.2009 64.4196 41.5843 64.2453 41.9228C64.071 42.2613 63.798 42.5389 63.4625 42.7189C63.127 42.8988 62.7447 42.9727 62.3663 42.9307Z" fill="#D8D8D8"/>
<defs>
<filter id="filter0_d_1_292" x="0" y="0" width="89.8694" height="90" filterUnits="userSpaceOnUse" color-interpolation-filters="sRGB">
<feFlood flood-opacity="0" result="BackgroundImageFix"/>
<feColorMatrix in="SourceAlpha" type="matrix" values="0 0 0 0 0 0 0 0 0 0 0 0 0 0 0 0 0 0 127 0" result="hardAlpha"/>
<feOffset dx="4" dy="4"/>
<feGaussianBlur stdDeviation="5"/>
<feColorMatrix type="matrix" values="0 0 0 0 0 0 0 0 0 0 0 0 0 0 0 0 0 0 0.25 0"/>
<feBlend mode="normal" in2="BackgroundImageFix" result="effect1_dropShadow_1_292"/>
<feBlend mode="normal" in="SourceGraphic" in2="effect1_dropShadow_1_292" result="shape"/>
</filter>
</defs>
</svg>
