<svg width="12" height="10" viewBox="0 0 12 10" fill="none" xmlns="http://www.w3.org/2000/svg">
<path fill-rule="evenodd" clip-rule="evenodd" d="M9.91921 5.6192L6.65171 8.94106C6.41302 9.18372 6.41268 9.57631 6.65065 9.81824C6.89028 10.0619 7.27492 10.0597 7.51347 9.81715L11.8212 5.43776C11.9408 5.31613 12.0002 5.15776 12 4.99947C11.9994 4.84078 11.94 4.68244 11.8212 4.56166L7.51347 0.182263C7.27478 -0.0603985 6.88862 -0.0607478 6.65065 0.181179C6.41102 0.424793 6.41316 0.815833 6.65171 1.05836L9.91921 4.38022H0.610228C0.274774 4.38022 0 4.65757 0 4.99971C0 5.34423 0.273208 5.6192 0.610228 5.6192H9.91921Z" fill="#4878F3"/>
</svg>
