<svg width="20" height="14" viewBox="0 0 20 14" fill="none" xmlns="http://www.w3.org/2000/svg">
<path fill-rule="evenodd" clip-rule="evenodd" d="M0.724295 7.88902e-05C0.629695 -0.00131384 0.535757 0.0157459 0.447946 0.0502983C0.360135 0.0848508 0.280205 0.136223 0.212805 0.20136C0.145405 0.266498 0.0918813 0.344152 0.0553477 0.42977C0.0188142 0.515388 0 0.607266 0 0.700083C0 0.792901 0.0188142 0.884778 0.0553477 0.970396C0.0918813 1.05601 0.145405 1.13367 0.212805 1.19881C0.280205 1.26394 0.360135 1.31523 0.447946 1.34979C0.535757 1.38434 0.629695 1.40148 0.724295 1.40009H19.2757C19.3703 1.40148 19.4642 1.38434 19.5521 1.34979C19.6399 1.31523 19.7198 1.26394 19.7872 1.19881C19.8546 1.13367 19.9081 1.05601 19.9447 0.970396C19.9812 0.884778 20 0.792901 20 0.700083C20 0.607266 19.9812 0.515388 19.9447 0.42977C19.9081 0.344152 19.8546 0.266498 19.7872 0.20136C19.7198 0.136223 19.6399 0.0848508 19.5521 0.0502983C19.4642 0.0157459 19.3703 -0.00131384 19.2757 7.88902e-05H0.724295ZM0.724295 6.30004C0.629695 6.29864 0.535757 6.3157 0.447946 6.35026C0.360135 6.38481 0.280205 6.43618 0.212805 6.50132C0.145405 6.56646 0.0918813 6.64403 0.0553477 6.72965C0.0188142 6.81526 0 6.90722 0 7.00004C0 7.09286 0.0188142 7.18473 0.0553477 7.27035C0.0918813 7.35597 0.145405 7.43363 0.212805 7.49876C0.280205 7.5639 0.360135 7.61519 0.447946 7.64974C0.535757 7.6843 0.629695 7.70136 0.724295 7.69996H19.2757C19.3703 7.70136 19.4642 7.6843 19.5521 7.64974C19.6399 7.61519 19.7198 7.5639 19.7872 7.49876C19.8546 7.43363 19.9081 7.35597 19.9447 7.27035C19.9812 7.18473 20 7.09286 20 7.00004C20 6.90722 19.9812 6.81526 19.9447 6.72965C19.9081 6.64403 19.8546 6.56646 19.7872 6.50132C19.7198 6.43618 19.6399 6.38481 19.5521 6.35026C19.4642 6.3157 19.3703 6.29864 19.2757 6.30004H0.724295ZM0.724295 12.6C0.629695 12.5986 0.535757 12.6157 0.447946 12.6502C0.360135 12.6848 0.280205 12.7361 0.212805 12.8012C0.145405 12.8663 0.0918813 12.944 0.0553477 13.0296C0.0188142 13.1152 0 13.2071 0 13.2999C0 13.3927 0.0188142 13.4847 0.0553477 13.5703C0.0918813 13.6559 0.145405 13.7335 0.212805 13.7986C0.280205 13.8638 0.360135 13.9151 0.447946 13.9497C0.535757 13.9843 0.629695 14.0013 0.724295 13.9999H19.2757C19.3703 14.0013 19.4642 13.9843 19.5521 13.9497C19.6399 13.9151 19.7198 13.8638 19.7872 13.7986C19.8546 13.7335 19.9081 13.6559 19.9447 13.5703C19.9812 13.4847 20 13.3927 20 13.2999C20 13.2071 19.9812 13.1152 19.9447 13.0296C19.9081 12.944 19.8546 12.8663 19.7872 12.8012C19.7198 12.7361 19.6399 12.6848 19.5521 12.6502C19.4642 12.6157 19.3703 12.5986 19.2757 12.6H0.724295Z" fill="white"/>
</svg>
