<svg width="34" height="22" viewBox="0 0 34 22" fill="none" xmlns="http://www.w3.org/2000/svg">
<path d="M9.32374 0C7.9435 0 6.8203 1.1389 6.8203 2.53844V2.88219H5.15133C5.09067 2.87542 5.02945 2.87542 4.96879 2.88219C4.74747 2.90674 4.54483 3.01944 4.40545 3.19548C4.26607 3.37152 4.20136 3.59647 4.22557 3.82089C4.24978 4.0453 4.36091 4.25079 4.53453 4.39212C4.70814 4.53345 4.93001 4.59905 5.15133 4.5745H6.8203V6.08172H2.51758C2.49151 6.08048 2.46541 6.08048 2.43934 6.08172C2.21802 6.09224 2.00989 6.19147 1.86073 6.35759C1.71157 6.52371 1.6336 6.74312 1.64398 6.96754C1.65435 7.19195 1.75222 7.40298 1.91605 7.55423C2.07988 7.70547 2.29626 7.78455 2.51758 7.77403H6.8203V9.38702H0.87453C0.848466 9.38577 0.822358 9.38577 0.796295 9.38702C0.686707 9.39222 0.579205 9.41927 0.479925 9.4666C0.380645 9.51394 0.291532 9.58063 0.217674 9.66288C0.143817 9.74514 0.0866602 9.84136 0.0494688 9.94601C0.0122774 10.0507 -0.00422061 10.1617 0.000916367 10.2728C0.00605334 10.384 0.0327248 10.4929 0.079408 10.5936C0.126091 10.6943 0.191872 10.7847 0.272995 10.8595C0.354117 10.9344 0.448993 10.9924 0.552204 11.0301C0.655416 11.0678 0.764942 11.0846 0.87453 11.0793H6.8203V11.8462C6.8203 13.2457 7.9435 14.3846 9.32374 14.3846V16.9231C9.32374 18.3226 10.4469 19.4616 11.8272 19.4616H12.766C13.139 20.9178 14.4483 22 15.9996 22C17.5492 22 18.8341 20.9178 19.2071 19.4616H23.6143C23.9873 20.9178 25.2966 22 26.848 22C28.3976 22 29.6825 20.9178 30.0555 19.4616H31.0204C32.4006 19.4616 33.5238 18.3226 33.5238 16.9231V11.8463C33.5238 11.3437 33.3559 10.8364 33.0805 10.4184L29.7425 5.34167C29.2769 4.6334 28.5202 4.23111 27.6824 4.23111H24.3444V2.5388C24.3444 1.13926 23.2212 0.000337747 21.841 0.000337747H9.32382L9.32374 0ZM9.32374 1.69231H21.8409C22.3024 1.69231 22.6754 2.07054 22.6754 2.53849V4.23079V5.9231V11.8461C22.6754 12.314 22.3024 12.6923 21.8409 12.6923H9.32374C8.8631 12.6923 8.48927 12.314 8.48927 11.8461V11.0793H9.6106C9.72124 11.081 9.8311 11.0603 9.9338 11.0186C10.0365 10.9768 10.13 10.9147 10.2088 10.836C10.2876 10.7573 10.3502 10.6634 10.393 10.5599C10.4357 10.4564 10.4577 10.3453 10.4577 10.2331C10.4577 10.1209 10.4357 10.0099 10.393 9.90637C10.3502 9.80288 10.2876 9.70903 10.2088 9.63029C10.13 9.55155 10.0365 9.48948 9.9338 9.44771C9.8311 9.40594 9.72124 9.38529 9.6106 9.38697H8.48927V7.77401H11.2535C11.3642 7.77572 11.474 7.75508 11.5768 7.71333C11.6795 7.67158 11.773 7.60952 11.8519 7.53078C11.9307 7.45204 11.9933 7.35818 12.0361 7.25467C12.0788 7.15116 12.1008 7.04007 12.1008 6.92785C12.1008 6.81563 12.0788 6.70452 12.0361 6.60101C11.9933 6.4975 11.9307 6.40364 11.8519 6.3249C11.773 6.24616 11.6795 6.1841 11.5768 6.14235C11.474 6.10059 11.3642 6.07998 11.2535 6.0817H8.48927V4.57448H13.8874C13.998 4.57619 14.1079 4.55558 14.2106 4.51383C14.3134 4.47207 14.4069 4.41002 14.4857 4.33127C14.5646 4.25253 14.6272 4.15865 14.6699 4.05514C14.7127 3.95163 14.7347 3.84054 14.7347 3.72832C14.7347 3.6161 14.7127 3.50499 14.6699 3.40148C14.6272 3.29797 14.5646 3.20411 14.4857 3.12537C14.4069 3.04663 14.3134 2.98457 14.2106 2.94282C14.1079 2.90106 13.998 2.88045 13.8874 2.88217H8.48927V2.53841C8.48927 2.0705 8.86312 1.69224 9.32374 1.69224V1.69231ZM24.3443 5.92317H27.6822C27.961 5.92317 28.205 6.05814 28.3603 6.29337L31.6982 11.3701C31.7892 11.5089 31.8547 11.6794 31.8547 11.8461V16.9229C31.8547 17.3908 31.4817 17.769 31.0202 17.769H30.0554C29.6823 16.3128 28.3975 15.2306 26.8478 15.2306C25.2965 15.2306 23.9872 16.3128 23.6142 17.769H19.207C18.834 16.3128 17.5491 15.2306 15.9994 15.2306C14.4481 15.2306 13.1388 16.3128 12.7658 17.769H11.827C11.3664 17.769 10.9926 17.3908 10.9926 16.9229V14.3844H21.841C23.2212 14.3844 24.3444 13.2455 24.3444 11.8459V5.92293L24.3443 5.92317ZM26.0133 6.76933C25.5518 6.76933 25.1788 7.14755 25.1788 7.61546V12.6922C25.1788 13.1601 25.5518 13.5384 26.0133 13.5384H29.3512C29.8127 13.5384 30.1857 13.1601 30.1857 12.6922V11.4229C30.1857 11.2563 30.1202 11.0858 30.0292 10.947L27.5258 7.13933C27.3706 6.9041 27.1265 6.76913 26.8478 6.76913H26.0133L26.0133 6.76933ZM26.0133 7.61546H26.8477L29.3512 11.4231V12.6924H26.0132V7.61565L26.0133 7.61546ZM15.9994 16.9231C16.9207 16.9231 17.6684 17.6813 17.6684 18.6154C17.6684 19.5496 16.9199 20.3077 15.9994 20.3077C15.0773 20.3077 14.3305 19.5496 14.3305 18.6154C14.3305 17.6813 15.0773 16.9231 15.9994 16.9231ZM26.8478 16.9231C27.7691 16.9231 28.5168 17.6813 28.5168 18.6154C28.5168 19.5496 27.7691 20.3077 26.8478 20.3077C25.9258 20.3077 25.1789 19.5496 25.1789 18.6154C25.1789 17.6813 25.9258 16.9231 26.8478 16.9231Z" fill="black"/>
</svg>
