<svg width="22" height="22" viewBox="0 0 22 22" fill="none" xmlns="http://www.w3.org/2000/svg">
<path fill-rule="evenodd" clip-rule="evenodd" d="M15.4195 0C16.9476 0 16.9476 2.32382 15.4195 2.32382H4.37827L9.49502 4.50023C10.0491 4.73579 10.5019 5.46364 10.5019 6.11766V16.0415H15.4195C16.9476 16.0415 16.9476 18.3653 15.4195 18.3653H10.5019V21.1645C10.5019 21.8188 10.0491 22.1611 9.49502 21.9256L1.67407 18.5988C0.838308 18.2431 -0.0996332 17.2587 0.00855778 16.2395V2.12575C0.00855778 0.960839 0.969397 0 2.13431 0H15.4195ZM16.1591 7.8324C16.1591 7.36414 16.6889 7.10168 17.0612 7.36557C18.2991 8.08026 19.5342 8.79209 20.7715 9.50678C21.1576 9.73003 21.1453 10.2856 20.7652 10.498C19.515 11.2195 18.2645 11.9405 17.0143 12.6618C16.6316 12.8819 16.1611 12.5994 16.1614 12.1683L16.1611 11.0982H12.1935C10.7404 11.0982 10.7404 8.90085 12.1935 8.90085H16.1594L16.1591 7.8324ZM6.52577 10.9138C7.35495 10.9138 8.027 11.5859 8.027 12.4151C8.027 13.2439 7.35495 13.916 6.52577 13.916C5.69688 13.916 5.02484 13.2439 5.02484 12.4151C5.02484 11.5859 5.69688 10.9138 6.52577 10.9138Z" fill="#C9C9C9"/>
</svg>
