<svg width="11" height="21" viewBox="0 0 11 21" fill="none" xmlns="http://www.w3.org/2000/svg">
<path d="M9.79479 7.29171H7.29167V5.20837C7.29167 4.13337 7.37917 3.45629 8.91979 3.45629H9.82396C10.399 3.45629 10.8656 2.98962 10.8656 2.41462V1.10837C10.8656 0.563581 10.4479 0.0979557 9.90417 0.0614974C9.275 0.018789 8.64479 -0.00100264 8.01354 3.903e-05C5.1875 3.903e-05 3.125 1.72608 3.125 4.89483V7.29171H1.04167C0.466667 7.29171 0 7.75837 0 8.33337V10.4167C0 10.9917 0.466667 11.4584 1.04167 11.4584L3.125 11.4573V19.7917C3.125 20.3667 3.59167 20.8334 4.16667 20.8334H6.25C6.825 20.8334 7.29167 20.3667 7.29167 19.7917V11.4552L9.55625 11.4542C10.0854 11.4542 10.5302 11.0573 10.5906 10.5313L10.8292 8.45212C10.901 7.83441 10.4177 7.29171 9.79479 7.29171Z" fill="white"/>
</svg>
