<svg width="23" height="22" viewBox="0 0 23 22" fill="none" xmlns="http://www.w3.org/2000/svg">
<path d="M10.4698 7.69283L0.18763 4.31549C0.075052 4.27796 0 4.35302 0 4.46559V18.4628C0 18.5378 0.0375257 18.5754 0.112578 18.6129L10.3947 21.9902C10.4698 22.0278 10.5823 21.9527 10.5823 21.8401V7.84293C10.5448 7.76788 10.5073 7.73036 10.4698 7.69283Z" fill="black"/>
<path d="M20.5642 3.00208L11.4079 0C11.3704 0 11.3329 0 11.3329 0L2.17651 3.00208C2.0264 3.03961 2.0264 3.22724 2.17651 3.26476L11.3329 6.26684C11.3704 6.26684 11.4079 6.26684 11.4079 6.26684L20.5642 3.26476C20.6768 3.26476 20.6768 3.07713 20.5642 3.00208Z" fill="black"/>
<path d="M22.5531 4.31549L12.271 7.69283C12.1959 7.73036 12.1584 7.76788 12.1584 7.84293V21.8401C12.1584 21.9527 12.271 21.9902 12.3461 21.9902L22.6282 18.6129C22.7032 18.5754 22.7408 18.5378 22.7408 18.4628V4.46559C22.7408 4.35302 22.6282 4.27796 22.5531 4.31549Z" fill="black"/>
</svg>
