<svg width="22" height="22" viewBox="0 0 22 22" fill="none" xmlns="http://www.w3.org/2000/svg">
<path d="M0.346297 16.5217C0.22751 16.5481 0.126302 16.6185 0.0646796 16.7197C0.00308849 16.8209 -0.0145223 16.9441 0.0118783 17.0585C0.174708 17.7098 0.429925 18.3302 0.777497 18.9022C0.83912 19.0078 0.940327 19.0782 1.05472 19.1046C1.16914 19.131 1.29236 19.1134 1.38914 19.0474C1.66193 18.8758 2.19877 18.9506 2.62118 19.3774C3.04798 19.8043 3.12279 20.3367 2.95117 20.6095C2.88519 20.7107 2.86758 20.8295 2.89398 20.9439C2.92038 21.0628 2.99518 21.1596 3.09639 21.2211C3.66842 21.5688 4.28885 21.824 4.94004 21.9868C5.05447 22.0132 5.17765 21.9956 5.27886 21.934C5.38006 21.8724 5.45044 21.7712 5.47685 21.6568C5.54726 21.34 5.97849 21.0144 6.58128 21.0144C7.1841 21.0144 7.61533 21.34 7.68574 21.6568C7.70772 21.7712 7.78255 21.8724 7.88373 21.934C7.94972 21.978 8.03335 22 8.11255 22C8.14774 22 8.18296 21.9956 8.21815 21.9868C8.86938 21.824 9.48978 21.5688 10.0662 21.2211C10.1674 21.1596 10.2378 21.0628 10.2686 20.9439C10.295 20.8295 10.273 20.7107 10.2114 20.6095C10.0354 20.3367 10.1102 19.8043 10.537 19.3774C10.9638 18.9506 11.5007 18.8758 11.7691 19.0474C11.8703 19.1134 11.9934 19.131 12.1079 19.1046C12.2223 19.0782 12.3235 19.0078 12.3851 18.9022C12.7283 18.3302 12.9879 17.7098 13.1507 17.0585C13.1771 16.9441 13.1595 16.8209 13.0979 16.7197C13.0319 16.6185 12.9307 16.5481 12.8163 16.5217C12.5039 16.4513 12.1783 16.0201 12.1783 15.4172C12.1783 14.8188 12.5039 14.3831 12.8163 14.3171C12.9307 14.2907 13.0319 14.2203 13.0979 14.1192C13.1595 14.0179 13.1771 13.8947 13.1507 13.7803C12.9879 13.1291 12.7283 12.5086 12.3851 11.9322C12.3235 11.831 12.2223 11.7606 12.1079 11.7342C11.9934 11.7078 11.8703 11.7254 11.7691 11.7914C11.4963 11.963 10.9638 11.8882 10.537 11.4614C10.1102 11.0346 10.0354 10.5021 10.2114 10.2293C10.273 10.1281 10.295 10.0093 10.2686 9.89047C10.2378 9.77607 10.1674 9.67486 10.0662 9.61766C9.48978 9.27005 8.86938 9.0104 8.21815 8.85202C8.10376 8.82119 7.98054 8.8432 7.88373 8.90479C7.78255 8.96642 7.70772 9.06763 7.68574 9.18202C7.61533 9.49887 7.1841 9.82009 6.58128 9.82009C5.97849 9.82009 5.54726 9.49887 5.47685 9.18202C5.45044 9.06763 5.38006 8.96642 5.27886 8.90479C5.17765 8.8432 5.05447 8.82119 4.94004 8.85202C4.28885 9.0104 3.66842 9.27005 3.09639 9.61766C2.99518 9.67486 2.92038 9.77607 2.89398 9.89047C2.86758 10.0093 2.88519 10.1281 2.95117 10.2293C3.12279 10.5021 3.04798 11.0346 2.62118 11.4614C2.19877 11.8882 1.66193 11.963 1.38914 11.7914C1.29236 11.7254 1.16914 11.7034 1.05472 11.7342C0.940327 11.7606 0.83912 11.831 0.777497 11.9322C0.429925 12.5086 0.174708 13.1291 0.0118783 13.7803C-0.0145223 13.8947 0.00308849 14.0179 0.0646796 14.1192C0.126302 14.2203 0.22751 14.2907 0.346297 14.3171C0.658741 14.3831 0.984339 14.8188 0.984339 15.4172C0.984339 16.0201 0.658741 16.4513 0.346297 16.5217ZM6.58128 13.0939C7.86176 13.0939 8.90457 14.1367 8.90457 15.4172C8.90457 16.7021 7.86176 17.7449 6.58128 17.7449C5.29647 17.7449 4.25363 16.7021 4.25363 15.4172C4.25363 14.1367 5.29647 13.0939 6.58128 13.0939Z" fill="black"/>
<path d="M11.6767 6.12386C11.5623 6.15023 11.4611 6.22067 11.3995 6.32185C11.3379 6.42306 11.3159 6.54628 11.3467 6.66068C11.4787 7.18874 11.6855 7.69033 11.9627 8.15677C12.0243 8.25798 12.1255 8.33279 12.2399 8.35919C12.3587 8.38559 12.4775 8.36358 12.5787 8.30199C12.7635 8.18317 13.1419 8.24037 13.4499 8.54839C13.7579 8.85642 13.8195 9.23483 13.7007 9.41967C13.6347 9.52085 13.6127 9.64407 13.6391 9.75846C13.6699 9.87289 13.7403 9.97407 13.8415 10.0357C14.308 10.3129 14.8096 10.5241 15.3376 10.6561C15.3728 10.6649 15.408 10.6649 15.4432 10.6649C15.5268 10.6649 15.606 10.6429 15.6764 10.6033C15.7776 10.5373 15.848 10.4361 15.8744 10.3217C15.9228 10.1061 16.2308 9.88168 16.6664 9.88168C17.1021 9.88168 17.41 10.1061 17.4584 10.3217C17.4848 10.4361 17.5552 10.5373 17.6565 10.6033C17.7576 10.6649 17.8765 10.6825 17.9953 10.6561C18.5233 10.5241 19.0249 10.3129 19.4913 10.0357C19.5925 9.97407 19.6629 9.87289 19.6893 9.75846C19.7201 9.64407 19.6981 9.52085 19.6321 9.41967C19.5133 9.23483 19.5749 8.85642 19.8829 8.54839C20.1909 8.24037 20.5649 8.18317 20.7541 8.30199C20.8553 8.36358 20.9742 8.38559 21.093 8.35919C21.2073 8.33279 21.3042 8.25798 21.3658 8.15677C21.6474 7.69473 21.8542 7.18874 21.9862 6.66068C22.017 6.54628 21.995 6.42306 21.9334 6.32185C21.8718 6.22067 21.7706 6.15023 21.6562 6.12386C21.4406 6.07545 21.2162 5.76742 21.2162 5.33181C21.2162 4.89617 21.4406 4.58815 21.6562 4.53977C21.7706 4.51337 21.8718 4.44292 21.9334 4.34174C21.995 4.24053 22.017 4.12171 21.9862 4.00292C21.8542 3.47489 21.6474 2.97327 21.3658 2.51122C21.3042 2.40565 21.2073 2.3352 21.093 2.3088C20.9742 2.28243 20.8553 2.30001 20.7541 2.36603C20.5694 2.48485 20.1909 2.42323 19.8829 2.1152C19.5749 1.80718 19.5133 1.43316 19.6321 1.24396C19.6981 1.14714 19.7201 1.02395 19.6893 0.909527C19.6629 0.790737 19.5925 0.693921 19.4913 0.632328C19.0249 0.350702 18.5233 0.143886 17.9953 0.0118787C17.8765 -0.0145228 17.7576 0.00308858 17.6565 0.0646816C17.5552 0.126275 17.4848 0.227516 17.4584 0.341912C17.41 0.561914 17.1021 0.781946 16.6664 0.781946C16.2308 0.781946 15.9228 0.561914 15.8744 0.341912C15.848 0.227516 15.7776 0.126275 15.6764 0.0646816C15.5752 0.00308858 15.452 -0.0145227 15.3376 0.0118787C14.8096 0.143886 14.308 0.350702 13.8415 0.632328C13.7403 0.693921 13.6699 0.790737 13.6391 0.909527C13.6127 1.02395 13.6347 1.14714 13.7007 1.24396C13.8195 1.43316 13.7579 1.80718 13.4499 2.1152C13.1419 2.42323 12.7635 2.48485 12.5787 2.36603C12.4775 2.30001 12.3587 2.28243 12.2399 2.3088C12.1255 2.3352 12.0243 2.41001 11.9627 2.51122C11.6855 2.97327 11.4787 3.47932 11.3467 4.00292C11.3159 4.12171 11.3379 4.24053 11.3995 4.34174C11.4611 4.44292 11.5623 4.51337 11.6767 4.53977C11.8923 4.58815 12.1167 4.89617 12.1167 5.33181C12.1167 5.76742 11.8923 6.07545 11.6767 6.12386ZM16.6664 3.56728C17.6389 3.56728 18.4309 4.35936 18.4309 5.33181C18.4309 6.30427 17.6389 7.09632 16.6664 7.09632C15.694 7.09632 14.902 6.30427 14.902 5.33181C14.902 4.35936 15.694 3.56728 16.6664 3.56728Z" fill="black"/>
</svg>
