<svg width="53" height="52" viewBox="0 0 53 52" fill="none" xmlns="http://www.w3.org/2000/svg">
<g filter="url(#filter0_d_1_719)">
<rect x="6.38235" y="6" width="31.9403" height="32" rx="5" fill="white"/>
<rect x="6.38235" y="6" width="31.9403" height="32" rx="5" fill="url(#paint0_linear_1_719)"/>
</g>
<path d="M22.8527 13.5871L20.4962 19.8544C20.4962 19.8545 20.4962 19.8545 20.4961 19.8546C20.4134 20.0795 20.1614 20.1927 19.9388 20.1087C19.7137 20.024 19.6024 19.7752 19.6848 19.5529L19.6849 19.5526L22.4471 12.2056C22.5108 12.0363 22.6725 11.925 22.8527 11.925C23.0334 11.925 23.1925 12.0368 23.2561 12.2055L23.2562 12.2056L25.9125 19.2722H32.9743C33.1568 19.2722 33.3194 19.3853 33.3808 19.5574C33.4438 19.7278 33.3909 19.9187 33.2509 20.0349L27.9398 24.4547L29.713 31.537L29.713 31.5371C29.7552 31.7068 29.6909 31.8817 29.5541 31.9868L29.5539 31.9869C29.4775 32.0452 29.387 32.0747 29.2938 32.0747C29.2197 32.0747 29.1458 32.056 29.0794 32.0186L29.0791 32.0184L22.8527 28.4665L16.6243 32.0181L22.8527 13.5871ZM22.8527 13.5871L25.2072 19.8547L25.2073 19.8548C25.2711 20.024 25.4326 20.1353 25.613 20.1353H31.7785L27.1765 23.9626C27.1765 23.9626 27.1765 23.9626 27.1764 23.9626L27.1763 23.9627L27.2243 24.0204M22.8527 13.5871L27.0331 24.3994L27.0331 24.3992L27.1059 24.381M27.2243 24.0204C27.1187 24.1078 27.0723 24.25 27.1059 24.381M27.2243 24.0204L31.8958 20.1353L27.2243 24.0204ZM27.1059 24.381L27.0332 24.3996L28.6281 30.7638M27.1059 24.381L28.7183 30.8152L28.6281 30.7638M28.6281 30.7638L28.6533 30.8645M28.6281 30.7638L23.0655 27.5938L23.0279 27.6587M28.6533 30.8645L18.6704 24.3993L17.0754 30.7637M28.6533 30.8645L23.0279 27.6587M28.6533 30.8645L22.6728 27.6587C22.7846 27.5953 22.9183 27.5953 23.0279 27.6587M23.0279 27.6587L23.0651 27.5935L23.0653 27.5937C22.9323 27.5168 22.7702 27.5172 22.6358 27.5935L22.6357 27.5935L17.0754 30.7637M17.0754 30.7637L17.0502 30.8645L16.9852 30.8152L17.0754 30.7637ZM13.9248 20.1353L18.5271 23.9627C18.6545 24.0685 18.7103 24.2402 18.6704 24.3992L13.9248 20.1353ZM13.9248 20.1353H18.2509C18.4893 20.1353 18.6831 19.9415 18.6831 19.7036C18.6831 19.4647 18.4891 19.2722 18.2509 19.2722H12.7288C12.5488 19.2722 12.3842 19.3851 12.3227 19.5572C12.2592 19.7277 12.3127 19.9186 12.4525 20.0347L13.9248 20.1353ZM12.4526 20.0347L17.7657 24.4545L15.9905 31.5367L15.9905 31.5368C15.948 31.7064 16.0118 31.8814 16.149 31.9866C16.2874 32.093 16.4758 32.1032 16.6242 32.0182L12.4526 20.0347Z" fill="black" stroke="black" stroke-width="0.15"/>
<defs>
<filter id="filter0_d_1_719" x="0.382355" y="0" width="51.9403" height="52" filterUnits="userSpaceOnUse" color-interpolation-filters="sRGB">
<feFlood flood-opacity="0" result="BackgroundImageFix"/>
<feColorMatrix in="SourceAlpha" type="matrix" values="0 0 0 0 0 0 0 0 0 0 0 0 0 0 0 0 0 0 127 0" result="hardAlpha"/>
<feOffset dx="4" dy="4"/>
<feGaussianBlur stdDeviation="5"/>
<feColorMatrix type="matrix" values="0 0 0 0 0 0 0 0 0 0 0 0 0 0 0 0 0 0 0.25 0"/>
<feBlend mode="normal" in2="BackgroundImageFix" result="effect1_dropShadow_1_719"/>
<feBlend mode="normal" in="SourceGraphic" in2="effect1_dropShadow_1_719" result="shape"/>
</filter>
<linearGradient id="paint0_linear_1_719" x1="22.3525" y1="6" x2="22.3525" y2="38" gradientUnits="userSpaceOnUse">
<stop stop-color="white"/>
<stop offset="1" stop-color="white" stop-opacity="0"/>
</linearGradient>
</defs>
</svg>
