<svg width="24" height="15" viewBox="0 0 24 15" fill="none" xmlns="http://www.w3.org/2000/svg">
<path d="M23.8706 13.1181C22.8905 11.3659 20.3656 9.26033 19.3232 8.3441C19.038 8.09324 19.0074 7.65924 19.2671 7.38182C21.2563 5.25841 22.8474 2.81857 23.395 1.34427C23.6366 0.692994 23.1365 0.00487633 22.4317 0.00487633H20.3847C19.71 0.00487633 19.3151 0.245447 19.1269 0.628517C17.4736 3.99379 16.0555 5.45022 15.0627 6.30142C14.5069 6.77823 13.6402 6.38324 13.6402 5.65773C13.6402 4.25983 13.6402 2.45284 13.6402 1.17143C13.6402 0.549952 13.1286 0.0471387 12.4975 0.0471387L8.75791 0.00487633C8.28719 0.00487633 8.01829 0.534239 8.30083 0.905389L8.91828 1.78585C9.15064 2.0909 9.27609 2.46205 9.27609 2.84296L9.27282 6.80803C9.27282 7.49777 8.43119 7.83479 7.93156 7.35148C6.24122 5.71625 4.77451 2.37699 4.24652 0.780227C4.09379 0.318051 3.65798 0.00595998 3.1638 0.00487633L1.14728 0C0.390746 0 -0.162338 0.7125 0.0432955 1.42988C1.88582 7.85429 5.66632 13.9661 12.4037 14.6287C13.0675 14.6937 13.6402 14.1628 13.6402 13.5055V11.4217C13.6402 10.824 14.112 10.3104 14.7186 10.2952C14.7398 10.2947 14.7611 10.2947 14.7824 10.2947C16.5644 10.2947 18.5602 12.871 19.2583 14.0761C19.4591 14.4228 19.8343 14.6341 20.2401 14.6341H22.9526C23.7441 14.6341 24.2519 13.8003 23.8706 13.1181Z" fill="white"/>
</svg>
