<svg width="21" height="24" viewBox="0 0 21 24" fill="none" xmlns="http://www.w3.org/2000/svg">
<path d="M3.95158 0L5.60768 5.43317V8.97781H7.00229V5.25885L8.60029 0H7.20567L6.33404 3.57369H6.24688L5.34619 0H3.95158ZM10.3726 2.17908C9.81331 2.17908 9.3666 2.33888 9.0361 2.64395C8.70561 2.94539 8.54218 3.35215 8.54218 3.86424V7.29265C8.54218 7.85558 8.71287 8.32772 9.0361 8.65821C9.36296 8.99234 9.77336 9.15214 10.3145 9.15214C10.8738 9.15214 11.3314 8.98144 11.651 8.65821C11.9706 8.33498 12.1159 7.88827 12.1159 7.32171V3.89329C12.1159 3.38847 11.9488 2.9926 11.6219 2.67301C11.2987 2.34978 10.8847 2.17908 10.3726 2.17908ZM13.1618 2.35341V7.9028C13.1618 8.29866 13.249 8.57831 13.3943 8.77443C13.5395 8.97055 13.7502 9.06497 14.0335 9.06497C14.2623 9.06497 14.4874 8.9996 14.7308 8.86159C14.9777 8.71995 15.232 8.5202 15.4571 8.25145V8.97781H16.6774V2.35341H15.4571V7.37982C15.3409 7.52146 15.2174 7.63768 15.0794 7.72847C14.9414 7.8229 14.8216 7.87374 14.7308 7.87374C14.6182 7.87374 14.5201 7.85558 14.4693 7.78658C14.4148 7.71758 14.4112 7.59046 14.4112 7.43793V2.35341H13.1618ZM10.3145 3.34126C10.4779 3.34126 10.6232 3.37031 10.7213 3.45747C10.8229 3.54827 10.8665 3.66449 10.8665 3.80613V7.43793C10.8665 7.61589 10.8193 7.74663 10.7213 7.84469C10.6232 7.94638 10.4816 7.98996 10.3145 7.98996C10.1511 7.98996 10.024 7.94275 9.93679 7.84469C9.84599 7.74663 9.82057 7.61952 9.82057 7.43793V3.80613C9.82057 3.66449 9.87142 3.54827 9.96584 3.45747C10.0603 3.37031 10.1656 3.34126 10.3145 3.34126ZM10.1692 10.3434C7.75771 10.3397 5.3934 10.3615 3.07995 10.4596C1.4638 10.4596 0.145454 11.7634 0.145454 13.365C0.047395 14.6325 -0.00344973 15.9037 0.000181839 17.1712C-0.00344973 18.4387 0.047395 19.7098 0.145454 20.9773C0.145454 22.5789 1.4638 23.8827 3.07995 23.8827C5.3934 23.9771 7.75771 24.0026 10.1692 23.9989C12.5844 24.0062 14.9487 23.9771 17.2585 23.8827C18.8746 23.8827 20.193 22.5789 20.193 20.9773C20.2911 19.7098 20.3419 18.4387 20.3383 17.1712C20.3455 15.9037 20.2911 14.6325 20.193 13.365C20.193 11.7634 18.8746 10.4596 17.2585 10.4596C14.9487 10.3615 12.5844 10.3397 10.1692 10.3434ZM1.56912 12.4062H5.84012C5.91638 12.4062 5.98539 12.4752 5.98539 12.5515V13.859C5.98539 13.9352 5.91638 14.0042 5.84012 14.0042H4.53267V21.5293C4.53267 21.6056 4.49272 21.6746 4.41645 21.6746H3.02184C2.94557 21.6746 2.87657 21.6056 2.87657 21.5293V14.0042H1.56912C1.49285 14.0042 1.4529 13.9352 1.4529 13.859V12.5515C1.4529 12.4752 1.49285 12.4062 1.56912 12.4062ZM10.5469 12.4062H11.7963C11.8725 12.4062 11.9415 12.4752 11.9415 12.5515V15.0792C12.0432 14.9848 12.1522 14.9085 12.2611 14.8468C12.4718 14.7306 12.6861 14.6725 12.9003 14.6725C13.3362 14.6725 13.6558 14.8468 13.8882 15.1664C14.1097 15.4751 14.2368 15.9073 14.2368 16.4738V20.1638C14.2368 20.6649 14.1315 21.0535 13.9172 21.3259C13.6957 21.6092 13.3652 21.7617 12.9584 21.7617C12.7006 21.7617 12.4718 21.6927 12.2611 21.5874C12.1486 21.5293 12.0432 21.4748 11.9415 21.384V21.5293C11.9415 21.6056 11.8725 21.6746 11.7963 21.6746H10.5469C10.4707 21.6746 10.4017 21.6056 10.4017 21.5293V12.5515C10.4017 12.4752 10.4707 12.4062 10.5469 12.4062ZM16.8808 14.5853C17.4837 14.5853 17.9776 14.7742 18.3045 15.1373C18.6313 15.5005 18.7984 16.0162 18.7984 16.6772V18.3914C18.7984 18.4677 18.7294 18.5077 18.6531 18.5077H16.445V19.6408C16.445 20.0475 16.4886 20.2073 16.5321 20.28C16.5685 20.3381 16.6302 20.4252 16.8227 20.4252C16.9788 20.4252 17.0878 20.3817 17.1423 20.309C17.1677 20.2691 17.2294 20.1238 17.2294 19.6408V19.1759C17.2294 19.0996 17.2984 19.0306 17.3747 19.0306H18.6531C18.7294 19.0306 18.7984 19.0996 18.7984 19.1759V19.6698C18.7984 20.3853 18.6059 20.9301 18.2754 21.2969C17.9449 21.6673 17.4474 21.8489 16.7936 21.8489C16.2016 21.8489 15.7404 21.6637 15.399 21.2678C15.0613 20.8792 14.876 20.3417 14.876 19.6698V16.6772C14.876 16.0671 15.054 15.5841 15.4281 15.1955C15.8021 14.8069 16.2924 14.5853 16.8808 14.5853ZM5.84012 14.7596H7.0604C7.13667 14.7596 7.20567 14.8286 7.20567 14.9049V19.9894C7.20567 20.1565 7.21657 20.2255 7.23473 20.2509C7.24199 20.2618 7.27468 20.309 7.38 20.309C7.41632 20.309 7.49622 20.2945 7.64149 20.1928C7.76134 20.1129 7.86666 20.0149 7.96109 19.9023V14.9049C7.96109 14.8286 8.03009 14.7596 8.10636 14.7596H9.3557C9.43197 14.7596 9.47192 14.8286 9.47192 14.9049V21.5293C9.47192 21.6056 9.43197 21.6746 9.3557 21.6746H8.10636C8.03009 21.6746 7.96109 21.6056 7.96109 21.5293V21.1516C7.79766 21.3114 7.63786 21.4313 7.46716 21.5293C7.19841 21.6818 6.94418 21.7617 6.68269 21.7617C6.3522 21.7617 6.09797 21.6492 5.92728 21.4131C5.76385 21.1916 5.69484 20.8756 5.69484 20.4543V14.9049C5.69484 14.8286 5.76385 14.7596 5.84012 14.7596ZM12.2611 16.009C12.2139 16.0162 12.1667 16.0417 12.1159 16.0671C12.0578 16.0961 11.9997 16.1506 11.9415 16.2124V20.2219C12.0142 20.2981 12.0759 20.3635 12.1449 20.3962C12.2212 20.4325 12.2938 20.4543 12.3774 20.4543C12.5335 20.4543 12.5953 20.3889 12.6098 20.3671C12.6461 20.3199 12.6679 20.211 12.6679 19.9894V16.561C12.6679 16.3722 12.6497 16.216 12.5807 16.1252C12.5117 16.0344 12.4028 15.9836 12.2611 16.009ZM16.8517 16.038C16.7028 16.038 16.5939 16.0707 16.5321 16.1542C16.4886 16.216 16.445 16.3685 16.445 16.6772V17.2002H17.2294V16.6772C17.2294 16.3722 17.1895 16.2233 17.1423 16.1542C17.0842 16.0743 16.9934 16.038 16.8517 16.038Z" fill="white"/>
</svg>
