<svg width="11" height="20" viewBox="0 0 11 20" fill="none" xmlns="http://www.w3.org/2000/svg">
<path d="M10.5268 9.92362C10.509 9.67582 10.4082 9.44111 10.2405 9.25697L2.19562 0.368362C2.0975 0.259823 1.97883 0.171564 1.84641 0.108631C1.71398 0.0456963 1.57039 0.00931168 1.42383 0.00156403C1.27726 -0.00618362 1.1306 0.0148468 0.99221 0.063467C0.853823 0.112087 0.726421 0.187338 0.617282 0.284922C0.508142 0.382505 0.419401 0.500525 0.356127 0.632214C0.292853 0.763903 0.256287 0.906708 0.248512 1.05245C0.240739 1.19819 0.261911 1.34403 0.310821 1.48164C0.359731 1.61924 0.43542 1.74591 0.533566 1.85443L7.90803 10L0.533566 18.1456C0.43542 18.2541 0.359731 18.3808 0.310821 18.5184C0.261911 18.656 0.240739 18.8018 0.248512 18.9476C0.256287 19.0933 0.292853 19.2361 0.356127 19.3678C0.419401 19.4995 0.508142 19.6175 0.617282 19.7151C0.726421 19.8126 0.853823 19.8879 0.99221 19.9365C1.1306 19.9851 1.27726 20.0062 1.42383 19.9984C1.57039 19.9907 1.71398 19.9543 1.84641 19.8914C1.97883 19.8284 2.0975 19.7402 2.19562 19.6316L10.2405 10.743C10.341 10.6325 10.4182 10.503 10.4674 10.3623C10.5166 10.2215 10.5368 10.0723 10.5268 9.92362Z" fill="#4878F3"/>
</svg>
