<svg width="53" height="52" viewBox="0 0 53 52" fill="none" xmlns="http://www.w3.org/2000/svg">
<g filter="url(#filter0_d_1_716)">
<rect x="6.29482" y="6" width="31.9403" height="32" rx="5" fill="white"/>
</g>
<mask id="path-2-outside-1_1_716" maskUnits="userSpaceOnUse" x="9.28727" y="11" width="26" height="22" fill="black">
<rect fill="white" x="9.28727" y="11" width="26" height="22"/>
<path d="M10.5268 12.0004C10.4599 12.0039 10.3971 12.0344 10.3523 12.0852C10.3074 12.1359 10.2841 12.2027 10.2876 12.2709C10.2911 12.3391 10.321 12.4031 10.3707 12.4489C10.4205 12.4946 10.486 12.5183 10.5529 12.5148H11.3966C11.9226 12.5148 12.2788 12.64 12.5448 12.8518C12.8089 13.0622 12.9974 13.3708 13.1276 13.7654V13.7742L16.5197 25.3214C15.6237 25.4656 15.0613 26.1283 15.1193 26.8469C15.1519 27.2502 15.3754 27.6512 15.763 27.9289C16.1506 28.2066 16.6953 28.3712 17.4069 28.3546H30.3326C30.3995 28.3546 30.4636 28.3275 30.5109 28.2793C30.5582 28.2311 30.5848 28.1656 30.5848 28.0974C30.5848 28.0292 30.5582 27.9638 30.5109 27.9155C30.4636 27.8673 30.3995 27.8402 30.3326 27.8402H17.4069C17.404 27.8402 17.4011 27.8402 17.3982 27.8402C16.767 27.855 16.3294 27.7123 16.05 27.5121C15.7706 27.3119 15.6439 27.0609 15.6238 26.8114C15.5838 26.3162 15.9561 25.7817 16.8242 25.7737C16.83 25.7739 16.8358 25.7739 16.8416 25.7737C16.8502 25.7742 16.8589 25.7742 16.8676 25.7737H28.9321C30.2892 25.7737 31.6172 24.8495 31.9852 23.5831H31.9765L34.2294 16.1332C34.2423 16.0942 34.2457 16.0527 34.2395 16.0121C34.2333 15.9715 34.2176 15.9331 34.1937 15.9C34.1698 15.8669 34.1384 15.8402 34.1022 15.8221C34.066 15.804 34.0261 15.7951 33.9858 15.7961H14.2497L13.6061 13.6144C13.6061 13.6114 13.6061 13.6085 13.6061 13.6056C13.4552 13.1442 13.222 12.7425 12.858 12.4526C12.494 12.1627 12.0054 12.0003 11.3967 12.0003H10.553C10.5443 11.9998 10.5355 12 10.5268 12.0004ZM14.3974 16.3109H33.6551L31.4979 23.4327C31.2073 24.4328 30.0588 25.2598 28.9319 25.2598H17.0328L14.3974 16.3109ZM18.2508 18.5636C18.2176 18.567 18.1854 18.577 18.156 18.5932C18.1266 18.6093 18.1007 18.6312 18.0796 18.6575C18.0585 18.6839 18.0427 18.7143 18.0332 18.7468C18.0236 18.7794 18.0205 18.8137 18.0239 18.8475C18.0274 18.8813 18.0373 18.9141 18.0532 18.944C18.0691 18.974 18.0906 19.0004 18.1165 19.0218C18.1425 19.0432 18.1723 19.0592 18.2043 19.0688C18.2363 19.0785 18.2698 19.0816 18.303 19.078H29.6977C29.7646 19.078 29.8288 19.0509 29.8761 19.0027C29.9234 18.9544 29.95 18.889 29.95 18.8208C29.95 18.7526 29.9234 18.6872 29.8761 18.6389C29.8288 18.5907 29.7646 18.5636 29.6977 18.5636H18.303C18.2856 18.5617 18.2681 18.5617 18.2508 18.5636ZM18.8858 20.8607C18.8256 20.8734 18.7722 20.9081 18.7355 20.9584C18.6989 21.0086 18.6816 21.0708 18.687 21.1331C18.6923 21.1955 18.72 21.2537 18.7646 21.2966C18.8093 21.3396 18.8679 21.3643 18.9292 21.3662H29.0801C29.1157 21.3715 29.152 21.3689 29.1865 21.3587C29.2211 21.3484 29.253 21.3307 29.2803 21.3067C29.3075 21.2827 29.3293 21.2531 29.3443 21.2197C29.3593 21.1864 29.367 21.1501 29.367 21.1134C29.367 21.0767 29.3593 21.0405 29.3443 21.0071C29.3293 20.9738 29.3075 20.9441 29.2803 20.9201C29.253 20.8961 29.2211 20.8784 29.1865 20.8682C29.152 20.8579 29.1157 20.8554 29.0801 20.8607H18.9292C18.9148 20.8594 18.9002 20.8594 18.8858 20.8607ZM19.8078 23.1488C19.7746 23.1506 19.7422 23.159 19.7122 23.1735C19.6823 23.188 19.6554 23.2084 19.6332 23.2336C19.611 23.2587 19.5938 23.288 19.5828 23.3199C19.5717 23.3518 19.5668 23.3856 19.5685 23.4193C19.5703 23.4531 19.5785 23.4862 19.5927 23.5168C19.607 23.5473 19.627 23.5747 19.6516 23.5973C19.6763 23.62 19.7051 23.6374 19.7363 23.6488C19.7676 23.6601 19.8007 23.665 19.8338 23.6632H28.1755C28.2424 23.6632 28.3065 23.6361 28.3538 23.5879C28.4011 23.5397 28.4277 23.4742 28.4277 23.406C28.4277 23.3378 28.4011 23.2724 28.3538 23.2242C28.3065 23.1759 28.2424 23.1488 28.1755 23.1488H19.8338C19.8252 23.1484 19.8164 23.1484 19.8078 23.1488ZM18.3639 28.6209C17.4522 28.6209 16.7112 29.3852 16.7112 30.3149C16.7112 31.2445 17.4522 32 18.3639 32C19.2755 32 20.0165 31.2445 20.0165 30.3149C20.0165 29.3852 19.2755 28.6209 18.3639 28.6209ZM28.4799 28.6209C27.5682 28.6209 26.8273 29.3852 26.8273 30.3149C26.8273 31.2445 27.5682 32 28.4799 32C29.3916 32 30.1413 31.2445 30.1413 30.3149C30.1413 29.3852 29.3916 28.6209 28.4799 28.6209ZM18.3639 29.1353C19.0048 29.1353 19.5207 29.6613 19.5207 30.3149C19.5207 30.9683 19.0047 31.4856 18.3639 31.4856C17.723 31.4856 17.207 30.9683 17.207 30.3149C17.207 29.6613 17.723 29.1353 18.3639 29.1353ZM28.4799 29.1353C29.1208 29.1353 29.6368 29.6613 29.6368 30.3149C29.6368 30.9683 29.1208 31.4856 28.4799 31.4856C27.839 31.4856 27.3318 30.9683 27.3318 30.3149C27.3318 29.6613 27.839 29.1353 28.4799 29.1353Z"/>
</mask>
<path d="M10.5268 12.0004C10.4599 12.0039 10.3971 12.0344 10.3523 12.0852C10.3074 12.1359 10.2841 12.2027 10.2876 12.2709C10.2911 12.3391 10.321 12.4031 10.3707 12.4489C10.4205 12.4946 10.486 12.5183 10.5529 12.5148H11.3966C11.9226 12.5148 12.2788 12.64 12.5448 12.8518C12.8089 13.0622 12.9974 13.3708 13.1276 13.7654V13.7742L16.5197 25.3214C15.6237 25.4656 15.0613 26.1283 15.1193 26.8469C15.1519 27.2502 15.3754 27.6512 15.763 27.9289C16.1506 28.2066 16.6953 28.3712 17.4069 28.3546H30.3326C30.3995 28.3546 30.4636 28.3275 30.5109 28.2793C30.5582 28.2311 30.5848 28.1656 30.5848 28.0974C30.5848 28.0292 30.5582 27.9638 30.5109 27.9155C30.4636 27.8673 30.3995 27.8402 30.3326 27.8402H17.4069C17.404 27.8402 17.4011 27.8402 17.3982 27.8402C16.767 27.855 16.3294 27.7123 16.05 27.5121C15.7706 27.3119 15.6439 27.0609 15.6238 26.8114C15.5838 26.3162 15.9561 25.7817 16.8242 25.7737C16.83 25.7739 16.8358 25.7739 16.8416 25.7737C16.8502 25.7742 16.8589 25.7742 16.8676 25.7737H28.9321C30.2892 25.7737 31.6172 24.8495 31.9852 23.5831H31.9765L34.2294 16.1332C34.2423 16.0942 34.2457 16.0527 34.2395 16.0121C34.2333 15.9715 34.2176 15.9331 34.1937 15.9C34.1698 15.8669 34.1384 15.8402 34.1022 15.8221C34.066 15.804 34.0261 15.7951 33.9858 15.7961H14.2497L13.6061 13.6144C13.6061 13.6114 13.6061 13.6085 13.6061 13.6056C13.4552 13.1442 13.222 12.7425 12.858 12.4526C12.494 12.1627 12.0054 12.0003 11.3967 12.0003H10.553C10.5443 11.9998 10.5355 12 10.5268 12.0004ZM14.3974 16.3109H33.6551L31.4979 23.4327C31.2073 24.4328 30.0588 25.2598 28.9319 25.2598H17.0328L14.3974 16.3109ZM18.2508 18.5636C18.2176 18.567 18.1854 18.577 18.156 18.5932C18.1266 18.6093 18.1007 18.6312 18.0796 18.6575C18.0585 18.6839 18.0427 18.7143 18.0332 18.7468C18.0236 18.7794 18.0205 18.8137 18.0239 18.8475C18.0274 18.8813 18.0373 18.9141 18.0532 18.944C18.0691 18.974 18.0906 19.0004 18.1165 19.0218C18.1425 19.0432 18.1723 19.0592 18.2043 19.0688C18.2363 19.0785 18.2698 19.0816 18.303 19.078H29.6977C29.7646 19.078 29.8288 19.0509 29.8761 19.0027C29.9234 18.9544 29.95 18.889 29.95 18.8208C29.95 18.7526 29.9234 18.6872 29.8761 18.6389C29.8288 18.5907 29.7646 18.5636 29.6977 18.5636H18.303C18.2856 18.5617 18.2681 18.5617 18.2508 18.5636ZM18.8858 20.8607C18.8256 20.8734 18.7722 20.9081 18.7355 20.9584C18.6989 21.0086 18.6816 21.0708 18.687 21.1331C18.6923 21.1955 18.72 21.2537 18.7646 21.2966C18.8093 21.3396 18.8679 21.3643 18.9292 21.3662H29.0801C29.1157 21.3715 29.152 21.3689 29.1865 21.3587C29.2211 21.3484 29.253 21.3307 29.2803 21.3067C29.3075 21.2827 29.3293 21.2531 29.3443 21.2197C29.3593 21.1864 29.367 21.1501 29.367 21.1134C29.367 21.0767 29.3593 21.0405 29.3443 21.0071C29.3293 20.9738 29.3075 20.9441 29.2803 20.9201C29.253 20.8961 29.2211 20.8784 29.1865 20.8682C29.152 20.8579 29.1157 20.8554 29.0801 20.8607H18.9292C18.9148 20.8594 18.9002 20.8594 18.8858 20.8607ZM19.8078 23.1488C19.7746 23.1506 19.7422 23.159 19.7122 23.1735C19.6823 23.188 19.6554 23.2084 19.6332 23.2336C19.611 23.2587 19.5938 23.288 19.5828 23.3199C19.5717 23.3518 19.5668 23.3856 19.5685 23.4193C19.5703 23.4531 19.5785 23.4862 19.5927 23.5168C19.607 23.5473 19.627 23.5747 19.6516 23.5973C19.6763 23.62 19.7051 23.6374 19.7363 23.6488C19.7676 23.6601 19.8007 23.665 19.8338 23.6632H28.1755C28.2424 23.6632 28.3065 23.6361 28.3538 23.5879C28.4011 23.5397 28.4277 23.4742 28.4277 23.406C28.4277 23.3378 28.4011 23.2724 28.3538 23.2242C28.3065 23.1759 28.2424 23.1488 28.1755 23.1488H19.8338C19.8252 23.1484 19.8164 23.1484 19.8078 23.1488ZM18.3639 28.6209C17.4522 28.6209 16.7112 29.3852 16.7112 30.3149C16.7112 31.2445 17.4522 32 18.3639 32C19.2755 32 20.0165 31.2445 20.0165 30.3149C20.0165 29.3852 19.2755 28.6209 18.3639 28.6209ZM28.4799 28.6209C27.5682 28.6209 26.8273 29.3852 26.8273 30.3149C26.8273 31.2445 27.5682 32 28.4799 32C29.3916 32 30.1413 31.2445 30.1413 30.3149C30.1413 29.3852 29.3916 28.6209 28.4799 28.6209ZM18.3639 29.1353C19.0048 29.1353 19.5207 29.6613 19.5207 30.3149C19.5207 30.9683 19.0047 31.4856 18.3639 31.4856C17.723 31.4856 17.207 30.9683 17.207 30.3149C17.207 29.6613 17.723 29.1353 18.3639 29.1353ZM28.4799 29.1353C29.1208 29.1353 29.6368 29.6613 29.6368 30.3149C29.6368 30.9683 29.1208 31.4856 28.4799 31.4856C27.839 31.4856 27.3318 30.9683 27.3318 30.3149C27.3318 29.6613 27.839 29.1353 28.4799 29.1353Z" fill="black"/>
<path d="M10.5268 12.0004C10.4599 12.0039 10.3971 12.0344 10.3523 12.0852C10.3074 12.1359 10.2841 12.2027 10.2876 12.2709C10.2911 12.3391 10.321 12.4031 10.3707 12.4489C10.4205 12.4946 10.486 12.5183 10.5529 12.5148H11.3966C11.9226 12.5148 12.2788 12.64 12.5448 12.8518C12.8089 13.0622 12.9974 13.3708 13.1276 13.7654V13.7742L16.5197 25.3214C15.6237 25.4656 15.0613 26.1283 15.1193 26.8469C15.1519 27.2502 15.3754 27.6512 15.763 27.9289C16.1506 28.2066 16.6953 28.3712 17.4069 28.3546H30.3326C30.3995 28.3546 30.4636 28.3275 30.5109 28.2793C30.5582 28.2311 30.5848 28.1656 30.5848 28.0974C30.5848 28.0292 30.5582 27.9638 30.5109 27.9155C30.4636 27.8673 30.3995 27.8402 30.3326 27.8402H17.4069C17.404 27.8402 17.4011 27.8402 17.3982 27.8402C16.767 27.855 16.3294 27.7123 16.05 27.5121C15.7706 27.3119 15.6439 27.0609 15.6238 26.8114C15.5838 26.3162 15.9561 25.7817 16.8242 25.7737C16.83 25.7739 16.8358 25.7739 16.8416 25.7737C16.8502 25.7742 16.8589 25.7742 16.8676 25.7737H28.9321C30.2892 25.7737 31.6172 24.8495 31.9852 23.5831H31.9765L34.2294 16.1332C34.2423 16.0942 34.2457 16.0527 34.2395 16.0121C34.2333 15.9715 34.2176 15.9331 34.1937 15.9C34.1698 15.8669 34.1384 15.8402 34.1022 15.8221C34.066 15.804 34.0261 15.7951 33.9858 15.7961H14.2497L13.6061 13.6144C13.6061 13.6114 13.6061 13.6085 13.6061 13.6056C13.4552 13.1442 13.222 12.7425 12.858 12.4526C12.494 12.1627 12.0054 12.0003 11.3967 12.0003H10.553C10.5443 11.9998 10.5355 12 10.5268 12.0004ZM14.3974 16.3109H33.6551L31.4979 23.4327C31.2073 24.4328 30.0588 25.2598 28.9319 25.2598H17.0328L14.3974 16.3109ZM18.2508 18.5636C18.2176 18.567 18.1854 18.577 18.156 18.5932C18.1266 18.6093 18.1007 18.6312 18.0796 18.6575C18.0585 18.6839 18.0427 18.7143 18.0332 18.7468C18.0236 18.7794 18.0205 18.8137 18.0239 18.8475C18.0274 18.8813 18.0373 18.9141 18.0532 18.944C18.0691 18.974 18.0906 19.0004 18.1165 19.0218C18.1425 19.0432 18.1723 19.0592 18.2043 19.0688C18.2363 19.0785 18.2698 19.0816 18.303 19.078H29.6977C29.7646 19.078 29.8288 19.0509 29.8761 19.0027C29.9234 18.9544 29.95 18.889 29.95 18.8208C29.95 18.7526 29.9234 18.6872 29.8761 18.6389C29.8288 18.5907 29.7646 18.5636 29.6977 18.5636H18.303C18.2856 18.5617 18.2681 18.5617 18.2508 18.5636ZM18.8858 20.8607C18.8256 20.8734 18.7722 20.9081 18.7355 20.9584C18.6989 21.0086 18.6816 21.0708 18.687 21.1331C18.6923 21.1955 18.72 21.2537 18.7646 21.2966C18.8093 21.3396 18.8679 21.3643 18.9292 21.3662H29.0801C29.1157 21.3715 29.152 21.3689 29.1865 21.3587C29.2211 21.3484 29.253 21.3307 29.2803 21.3067C29.3075 21.2827 29.3293 21.2531 29.3443 21.2197C29.3593 21.1864 29.367 21.1501 29.367 21.1134C29.367 21.0767 29.3593 21.0405 29.3443 21.0071C29.3293 20.9738 29.3075 20.9441 29.2803 20.9201C29.253 20.8961 29.2211 20.8784 29.1865 20.8682C29.152 20.8579 29.1157 20.8554 29.0801 20.8607H18.9292C18.9148 20.8594 18.9002 20.8594 18.8858 20.8607ZM19.8078 23.1488C19.7746 23.1506 19.7422 23.159 19.7122 23.1735C19.6823 23.188 19.6554 23.2084 19.6332 23.2336C19.611 23.2587 19.5938 23.288 19.5828 23.3199C19.5717 23.3518 19.5668 23.3856 19.5685 23.4193C19.5703 23.4531 19.5785 23.4862 19.5927 23.5168C19.607 23.5473 19.627 23.5747 19.6516 23.5973C19.6763 23.62 19.7051 23.6374 19.7363 23.6488C19.7676 23.6601 19.8007 23.665 19.8338 23.6632H28.1755C28.2424 23.6632 28.3065 23.6361 28.3538 23.5879C28.4011 23.5397 28.4277 23.4742 28.4277 23.406C28.4277 23.3378 28.4011 23.2724 28.3538 23.2242C28.3065 23.1759 28.2424 23.1488 28.1755 23.1488H19.8338C19.8252 23.1484 19.8164 23.1484 19.8078 23.1488ZM18.3639 28.6209C17.4522 28.6209 16.7112 29.3852 16.7112 30.3149C16.7112 31.2445 17.4522 32 18.3639 32C19.2755 32 20.0165 31.2445 20.0165 30.3149C20.0165 29.3852 19.2755 28.6209 18.3639 28.6209ZM28.4799 28.6209C27.5682 28.6209 26.8273 29.3852 26.8273 30.3149C26.8273 31.2445 27.5682 32 28.4799 32C29.3916 32 30.1413 31.2445 30.1413 30.3149C30.1413 29.3852 29.3916 28.6209 28.4799 28.6209ZM18.3639 29.1353C19.0048 29.1353 19.5207 29.6613 19.5207 30.3149C19.5207 30.9683 19.0047 31.4856 18.3639 31.4856C17.723 31.4856 17.207 30.9683 17.207 30.3149C17.207 29.6613 17.723 29.1353 18.3639 29.1353ZM28.4799 29.1353C29.1208 29.1353 29.6368 29.6613 29.6368 30.3149C29.6368 30.9683 29.1208 31.4856 28.4799 31.4856C27.839 31.4856 27.3318 30.9683 27.3318 30.3149C27.3318 29.6613 27.839 29.1353 28.4799 29.1353Z" stroke="black" stroke-width="0.4" mask="url(#path-2-outside-1_1_716)"/>
<defs>
<filter id="filter0_d_1_716" x="0.294815" y="0" width="51.9403" height="52" filterUnits="userSpaceOnUse" color-interpolation-filters="sRGB">
<feFlood flood-opacity="0" result="BackgroundImageFix"/>
<feColorMatrix in="SourceAlpha" type="matrix" values="0 0 0 0 0 0 0 0 0 0 0 0 0 0 0 0 0 0 127 0" result="hardAlpha"/>
<feOffset dx="4" dy="4"/>
<feGaussianBlur stdDeviation="5"/>
<feColorMatrix type="matrix" values="0 0 0 0 0 0 0 0 0 0 0 0 0 0 0 0 0 0 0.25 0"/>
<feBlend mode="normal" in2="BackgroundImageFix" result="effect1_dropShadow_1_716"/>
<feBlend mode="normal" in="SourceGraphic" in2="effect1_dropShadow_1_716" result="shape"/>
</filter>
</defs>
</svg>
