<svg width="90" height="90" viewBox="0 0 90 90" fill="none" xmlns="http://www.w3.org/2000/svg">
<g filter="url(#filter0_d_1_295)">
<rect x="6" y="6" width="69.8695" height="70" rx="5" fill="white"/>
</g>
<path d="M63.2539 56.2577C62.3196 57.8595 58.3152 63.7327 55.9793 63.5325C48.0659 62.8542 38.6935 55.9908 32.6201 49.9174C26.5467 43.844 19.6833 34.4716 19.005 26.5586C18.805 24.2227 24.678 20.2186 26.2798 19.2839C27.8816 18.3492 30.763 19.2719 35.223 29.028C37.3587 33.6998 33.0873 36.3695 33.0873 36.3695C34.7576 38.9947 36.7042 41.4335 38.8937 43.6442C41.1046 45.8336 43.5436 47.78 46.1689 49.4502C46.1689 49.4502 48.8389 45.1788 53.5104 47.3145C63.266 51.7744 64.1883 54.6559 63.2539 56.2577Z" fill="#D8D8D8"/>
<defs>
<filter id="filter0_d_1_295" x="0" y="0" width="89.8694" height="90" filterUnits="userSpaceOnUse" color-interpolation-filters="sRGB">
<feFlood flood-opacity="0" result="BackgroundImageFix"/>
<feColorMatrix in="SourceAlpha" type="matrix" values="0 0 0 0 0 0 0 0 0 0 0 0 0 0 0 0 0 0 127 0" result="hardAlpha"/>
<feOffset dx="4" dy="4"/>
<feGaussianBlur stdDeviation="5"/>
<feColorMatrix type="matrix" values="0 0 0 0 0 0 0 0 0 0 0 0 0 0 0 0 0 0 0.25 0"/>
<feBlend mode="normal" in2="BackgroundImageFix" result="effect1_dropShadow_1_295"/>
<feBlend mode="normal" in="SourceGraphic" in2="effect1_dropShadow_1_295" result="shape"/>
</filter>
</defs>
</svg>
