<svg width="1332" height="442" viewBox="0 0 1332 442" fill="none" xmlns="http://www.w3.org/2000/svg">
<g filter="url(#filter0_d_439_3929)">
<path d="M420.293 345.462H343.51V432.005H244.603V345.462H11V263.473L244.603 11H343.51V263.473H420.293V345.462ZM244.603 263.473V119.017L112.51 263.473H244.603Z" fill="white"/>
<path d="M661.79 432.005C627.086 432.005 593.466 424.197 560.931 408.58C528.396 392.529 501.717 368.67 480.894 337.003C460.506 305.335 450.311 266.943 450.311 221.828C450.311 176.712 460.723 138.321 481.545 106.653C502.368 74.9858 529.047 51.1267 561.582 35.076C594.117 19.0253 627.52 11 661.79 11C696.494 11 730.114 19.0253 762.649 35.076C795.618 51.1267 822.514 74.9858 843.336 106.653C864.159 138.321 874.57 176.712 874.57 221.828C874.57 266.943 863.942 305.335 842.686 337.003C821.863 368.67 794.967 392.529 761.998 408.58C729.463 424.197 696.06 432.005 661.79 432.005ZM661.79 354.571C681.745 354.571 699.748 349.149 715.798 338.304C731.849 327.459 744.646 312.059 754.19 292.104C763.734 271.715 768.505 248.29 768.505 221.828C768.505 194.932 763.951 171.507 754.841 151.552C745.731 131.163 732.934 115.546 716.449 104.701C700.398 93.8562 682.179 88.4337 661.79 88.4337C642.269 88.4337 624.483 93.8562 608.432 104.701C592.382 115.546 579.584 131.163 570.041 151.552C560.931 171.941 556.376 195.366 556.376 221.828C556.376 248.29 560.931 271.715 570.041 292.104C579.584 312.059 592.165 327.459 607.782 338.304C623.832 349.149 641.835 354.571 661.79 354.571Z" fill="white"/>
<path d="M1322 345.462H1245.22V432.005H1146.31V345.462H912.707V263.473L1146.31 11H1245.22V263.473H1322V345.462ZM1146.31 263.473V119.017L1014.22 263.473H1146.31Z" fill="white"/>
</g>
<defs>
<filter id="filter0_d_439_3929" x="0.5" y="0.5" width="1331" height="441.006" filterUnits="userSpaceOnUse" color-interpolation-filters="sRGB">
<feFlood flood-opacity="0" result="BackgroundImageFix"/>
<feColorMatrix in="SourceAlpha" type="matrix" values="0 0 0 0 0 0 0 0 0 0 0 0 0 0 0 0 0 0 127 0" result="hardAlpha"/>
<feOffset dx="-0.5" dy="-0.5"/>
<feGaussianBlur stdDeviation="5"/>
<feColorMatrix type="matrix" values="0 0 0 0 0.579167 0 0 0 0 0.579167 0 0 0 0 0.579167 0 0 0 0.25 0"/>
<feBlend mode="normal" in2="BackgroundImageFix" result="effect1_dropShadow_439_3929"/>
<feBlend mode="normal" in="SourceGraphic" in2="effect1_dropShadow_439_3929" result="shape"/>
</filter>
</defs>
</svg>
